# xmcd
#
# Track frame offsets:
#	150
#	19045
#	40140
#	61302
#	81075
#	99612
#	114465
#	126842
#	144650
#	166920
#
# Disc length: 2442 seconds
#
# Revision: 1
# Processed by: cddbd v1.4PL0 Copyright (c) Steve Scherf et al.
# Submitted via: audiograbber 1.81.03
#
DISCID=7f09880a
DTITLE=Barry Michael - The First Time
DYEAR=1993
DGENRE=Country
TTITLE0=The First Time
TTITLE1=Talk To Me
TTITLE2=Little Darling
TTITLE3=A World That Lasts Forever
TTITLE4=It's Not Me (Song For A Modern Woman)
TTITLE5=For All Time
TTITLE6=Not Think Of You
TTITLE7=They Do It All The Time
TTITLE8=Social Security
TTITLE9=Tryin' To Understand Girls
EXTD=
EXTT0=
EXTT1=
EXTT2=
EXTT3=
EXTT4=
EXTT5=
EXTT6=
EXTT7=
EXTT8=
EXTT9=
PLAYORDER=
